<?xml version="1.0" encoding="UTF-8"?>
<svg version="1.1" xmlns="http://www.w3.org/2000/svg" width="500" height="500">
<path d="M0 0 C23.17881496 19.57792856 39.47866716 46.29064759 42.83447266 76.82470703 C45.46585193 111.40522223 36.72727537 141.36391465 14.4765625 168.0234375 C-4.47280157 189.96554766 -32.02028354 204.47800155 -61 207 C-96.09043686 208.69517435 -125.54707298 199.84213469 -152.1875 176.5625 C-172.94354608 157.2961223 -187.44500834 130.28253151 -189.20458984 101.67358398 C-189.30274053 98.19620979 -189.32900031 94.72869675 -189.3125 91.25 C-189.30758545 90.01934814 -189.3026709 88.78869629 -189.29760742 87.52075195 C-189.17923902 78.31047624 -188.44157324 69.89288465 -186 61 C-185.68289062 59.80375 -185.36578125 58.6075 -185.0390625 57.375 C-175.86869484 26.67703165 -154.51061813 2.29800839 -126.5625 -12.8125 C-118.94534842 -16.7816036 -111.31264266 -19.75927709 -103 -22 C-101.84242188 -22.31839844 -100.68484375 -22.63679687 -99.4921875 -22.96484375 C-64.91422306 -30.93025594 -27.44802401 -22.36653851 0 0 Z M-151 27 C-169.35392853 49.35974627 -174.6507077 75.7184377 -173 104 C-170.54951973 127.29822105 -158.27294563 147.70326351 -142 164 C-141.28328125 164.72832031 -140.5665625 165.45664062 -139.828125 166.20703125 C-120.27004883 184.84602489 -93.53531975 191.59835279 -67.234375 191.27734375 C-43.23148034 190.54233738 -21.78994918 179.69194225 -4 164 C-3.37738281 163.46117187 -2.75476563 162.92234375 -2.11328125 162.3671875 C14.55982385 146.89889886 25.59618042 122.6087771 27.20703125 100.1081543 C27.30242454 97.15220448 27.32928172 94.20741838 27.3125 91.25 C27.30404053 89.67412109 27.30404053 89.67412109 27.29541016 88.06640625 C26.91456414 63.54143108 17.34973355 41.15384208 1 23 C0.31421875 22.23171875 -0.3715625 21.4634375 -1.078125 20.671875 C-16.8234424 3.99350175 -39.81928824 -7.76395911 -62.88989258 -9.17700195 C-98.39803047 -9.90118678 -126.54057539 0.2003218 -151 27 Z " fill="#070707" transform="translate(323,159)"/>
<path d="M0 0 C10.333125 -0.12375 10.333125 -0.12375 20.875 -0.25 C23.0288623 -0.28641602 25.18272461 -0.32283203 27.40185547 -0.36035156 C29.14028939 -0.3720518 30.87873442 -0.38224045 32.6171875 -0.390625 C33.4944751 -0.41108887 34.3717627 -0.43155273 35.27563477 -0.45263672 C42.2114949 -0.4564825 49.12609587 0.86686394 54.65866089 5.3414917 C58.41569448 9.46172316 59.96100149 13.93374196 60.03125 19.45703125 C59.62022064 26.3109459 57.87536597 30.12463403 53 35 C53.928125 35.680625 54.85625 36.36125 55.8125 37.0625 C59.97681475 40.59675294 61.61621042 44.22392202 62.3515625 49.54296875 C62.73492463 56.69569906 61.18672339 62.16922181 57 68 C51.39167105 74.12855856 46.54207156 74.44689608 38 76 C25.46 76 12.92 76 0 76 C0 50.92 0 25.84 0 0 Z M16 14 C16 18.95 16 23.9 16 29 C19.73037847 29.1350499 23.45586412 29.23415132 27.1875 29.3125 C28.24259766 29.35439453 29.29769531 29.39628906 30.38476562 29.43945312 C36.72290851 29.58364378 36.72290851 29.58364378 42.23046875 26.70703125 C44.3121917 24.03268451 44.3121917 24.03268451 44.125 20.375 C43.30519932 17.00080939 43.30519932 17.00080939 41.13671875 15.30078125 C36.3680396 13.32323435 31.79111337 13.68515456 26.6875 13.8125 C25.66076172 13.82603516 24.63402344 13.83957031 23.57617188 13.85351562 C21.05055511 13.88875679 18.52520944 13.94256053 16 14 Z M16 43 C16 49.27 16 55.54 16 62 C19.188022 62.08143481 22.37393474 62.14070764 25.5625 62.1875 C26.45775391 62.21263672 27.35300781 62.23777344 28.27539062 62.26367188 C33.98016874 62.32636174 37.99488131 61.82154523 43 59 C45.44521115 55.33218328 45.72237759 52.26546767 45 48 C43.12984906 45.56880377 41.71861655 44.35930827 39 43 C37.2595583 42.91550372 35.51590278 42.89276976 33.7734375 42.90234375 C32.2265625 42.90717773 32.2265625 42.90717773 30.6484375 42.91210938 C29.56820312 42.92048828 28.48796875 42.92886719 27.375 42.9375 C26.28703125 42.94201172 25.1990625 42.94652344 24.078125 42.95117188 C21.38539338 42.9629821 18.69268991 42.98091795 16 43 Z " fill="#070707" transform="translate(189,211)"/>
<path d="M0 0 C6.81589284 5.20533215 9.33074591 10.65372956 11 19 C11 22.63 11 26.26 11 30 C-2.2 30 -15.4 30 -29 30 C-26.76709689 37.3035651 -26.76709689 37.3035651 -24.375 39.9375 C-20.67310911 41.59360908 -17.04885587 42.1301418 -13 42 C-9.329739 40.43818681 -8.2272627 39.34089404 -6 36 C-3.2114711 35.77892213 -0.65346819 35.71892465 2.125 35.8125 C3.25615234 35.83280273 3.25615234 35.83280273 4.41015625 35.85351562 C6.27374127 35.88890015 8.13695978 35.94270833 10 36 C9.11257167 43.00968673 6.47481589 47.16689863 1.01171875 51.62109375 C-6.75809165 56.35812841 -16.21490654 56.3303484 -25 55 C-32.63183758 52.80770108 -38.01564488 49.2374189 -41.953125 42.27734375 C-46.32682913 32.76290528 -46.3188718 22.03566241 -42.90234375 12.1796875 C-39.7476859 4.55934516 -34.2840537 -0.15197684 -26.8125 -3.375 C-17.36476689 -4.92380871 -8.41181671 -5.02639312 0 0 Z M-26 12 C-28.30707661 15.75932588 -28.30707661 15.75932588 -29 20 C-21.08 20 -13.16 20 -5 20 C-6.08089503 14.59552487 -7.01919841 13.49533798 -11 10 C-16.02529156 7.48735422 -21.85255991 8.44505135 -26 12 Z " fill="#080808" transform="translate(299,233)"/>
<path d="M0 0 C11.22 0 22.44 0 34 0 C34 2.97 34 5.94 34 9 C22.78 9 11.56 9 0 9 C0 6.03 0 3.06 0 0 Z " fill="#0B0B0B" transform="translate(264,215)"/>
<path d="" fill="#FFFFFF" transform="translate(0,0)"/>
<path d="" fill="#FFFFFF" transform="translate(0,0)"/>
<path d="" fill="#FFFFFF" transform="translate(0,0)"/>
<path d="" fill="#FFFFFF" transform="translate(0,0)"/>
<path d="" fill="#FFFFFF" transform="translate(0,0)"/>
<path d="" fill="#FFFFFF" transform="translate(0,0)"/>
<path d="" fill="#FFFFFF" transform="translate(0,0)"/>
<path d="" fill="#FFFFFF" transform="translate(0,0)"/>
<path d="" fill="#FFFFFF" transform="translate(0,0)"/>
<path d="" fill="#FFFFFF" transform="translate(0,0)"/>
<path d="" fill="#FFFFFF" transform="translate(0,0)"/>
<path d="" fill="#FFFFFF" transform="translate(0,0)"/>
<path d="" fill="#FFFFFF" transform="translate(0,0)"/>
<path d="" fill="#FFFFFF" transform="translate(0,0)"/>
<path d="" fill="#FFFFFF" transform="translate(0,0)"/>
<path d="" fill="#FFFFFF" transform="translate(0,0)"/>
<path d="" fill="#FFFFFF" transform="translate(0,0)"/>
<path d="" fill="#FFFFFF" transform="translate(0,0)"/>
<path d="" fill="#FFFFFF" transform="translate(0,0)"/>
<path d="" fill="#FFFFFF" transform="translate(0,0)"/>
<path d="" fill="#FFFFFF" transform="translate(0,0)"/>
<path d="" fill="#FFFFFF" transform="translate(0,0)"/>
<path d="" fill="#FFFFFF" transform="translate(0,0)"/>
<path d="" fill="#FFFFFF" transform="translate(0,0)"/>
<path d="" fill="#FFFFFF" transform="translate(0,0)"/>
<path d="" fill="#FFFFFF" transform="translate(0,0)"/>
<path d="" fill="#FFFFFF" transform="translate(0,0)"/>
<path d="" fill="#FFFFFF" transform="translate(0,0)"/>
<path d="" fill="#FFFFFF" transform="translate(0,0)"/>
<path d="" fill="#FFFFFF" transform="translate(0,0)"/>
<path d="" fill="#FFFFFF" transform="translate(0,0)"/>
<path d="" fill="#FFFFFF" transform="translate(0,0)"/>
<path d="" fill="#FFFFFF" transform="translate(0,0)"/>
<path d="" fill="#FFFFFF" transform="translate(0,0)"/>
<path d="" fill="#FFFFFF" transform="translate(0,0)"/>
<path d="" fill="#FFFFFF" transform="translate(0,0)"/>
<path d="" fill="#FFFFFF" transform="translate(0,0)"/>
<path d="" fill="#FFFFFF" transform="translate(0,0)"/>
<path d="" fill="#FFFFFF" transform="translate(0,0)"/>
<path d="" fill="#FFFFFF" transform="translate(0,0)"/>
<path d="" fill="#FFFFFF" transform="translate(0,0)"/>
<path d="" fill="#FFFFFF" transform="translate(0,0)"/>
<path d="" fill="#FFFFFF" transform="translate(0,0)"/>
<path d="" fill="#FFFFFF" transform="translate(0,0)"/>
<path d="" fill="#FFFFFF" transform="translate(0,0)"/>
<path d="" fill="#FFFFFF" transform="translate(0,0)"/>
<path d="" fill="#FFFFFF" transform="translate(0,0)"/>
<path d="" fill="#FFFFFF" transform="translate(0,0)"/>
<path d="" fill="#FFFFFF" transform="translate(0,0)"/>
<path d="" fill="#FFFFFF" transform="translate(0,0)"/>
<path d="" fill="#FFFFFF" transform="translate(0,0)"/>
<path d="" fill="#FFFFFF" transform="translate(0,0)"/>
<path d="" fill="#FFFFFF" transform="translate(0,0)"/>
<path d="" fill="#FFFFFF" transform="translate(0,0)"/>
<path d="" fill="#FFFFFF" transform="translate(0,0)"/>
<path d="" fill="#FFFFFF" transform="translate(0,0)"/>
<path d="" fill="#FFFFFF" transform="translate(0,0)"/>
<path d="" fill="#FFFFFF" transform="translate(0,0)"/>
<path d="" fill="#FFFFFF" transform="translate(0,0)"/>
<path d="" fill="#FFFFFF" transform="translate(0,0)"/>
<path d="" fill="#FFFFFF" transform="translate(0,0)"/>
<path d="" fill="#FFFFFF" transform="translate(0,0)"/>
<path d="" fill="#FFFFFF" transform="translate(0,0)"/>
</svg>
