<?xml version="1.0" encoding="UTF-8"?>
<svg version="1.1" xmlns="http://www.w3.org/2000/svg" width="516" height="483">
<path d="M0 0 C19.90601025 -0.28069186 39.81161737 -0.49211024 59.71919823 -0.62174606 C68.96337528 -0.68354692 78.20632072 -0.76775278 87.44970703 -0.90527344 C95.5091599 -1.02512238 103.56772071 -1.102354 111.62803996 -1.12906194 C115.89399296 -1.14466869 120.15739475 -1.18116434 124.42252731 -1.26876068 C128.44366086 -1.35067102 132.46121229 -1.37525551 136.48310089 -1.35729218 C137.95297659 -1.36057414 139.42298097 -1.38419307 140.89213181 -1.4304657 C151.61724579 -1.75148819 151.61724579 -1.75148819 155.60344362 1.17864132 C159.84637435 5.19210683 164.10691211 10.07166894 165 16 C165.66 16 166.32 16 167 16 C171 21.41176471 171 21.41176471 171 24 C171.66 24 172.32 24 173 24 C174.26171875 25.44604492 174.26171875 25.44604492 175.6875 27.48046875 C176.21706299 28.22683594 176.74662598 28.97320313 177.29223633 29.7421875 C178.13757935 30.95261719 178.13757935 30.95261719 179 32.1875 C183.92013711 39.13778743 188.97394603 45.92585892 194.26953125 52.59375 C196 55 196 55 196 57 C196.66 57 197.32 57 198 57 C202 62.41176471 202 62.41176471 202 65 C202.66 65 203.32 65 204 65 C205.25073242 66.64135742 205.25073242 66.64135742 206.66796875 68.91796875 C210.4729154 74.82251525 214.82416385 80.22554272 219.22851562 85.68945312 C219.82986328 86.44806641 220.43121094 87.20667969 221.05078125 87.98828125 C221.59387939 88.66415283 222.13697754 89.34002441 222.6965332 90.03637695 C224.03278561 92.04939028 224.57378548 93.63818482 225 96 C225.66 96 226.32 96 227 96 C228.85373131 98.31940294 230.59632531 100.64435744 232.3125 103.0625 C232.78623047 103.71927734 233.25996094 104.37605469 233.74804688 105.05273438 C234.69915506 106.37335654 235.64594905 107.69709661 236.58837891 109.02392578 C237.53793952 110.35317926 238.4988129 111.67441624 239.47021484 112.98779297 C243 117.78665844 243 117.78665844 243 120 C243.66 120 244.32 120 245 120 C246.3046875 121.625 246.3046875 121.625 247.875 124 C251.18616618 128.87264244 254.64677426 133.60591239 258.1875 138.3125 C258.69845215 138.99376953 259.2094043 139.67503906 259.73583984 140.37695312 C261.89817744 143.25065105 264.0695253 146.08400494 266.36328125 148.85546875 C268 151 268 151 268 153 C268.66 153 269.32 153 270 153 C274 158.41176471 274 158.41176471 274 161 C274.66 161 275.32 161 276 161 C277.4631783 162.97440927 278.80713064 164.93238871 280.125 167 C280.49753906 167.57234375 280.87007813 168.1446875 281.25390625 168.734375 C282.17550408 170.15221782 283.08855821 171.57560725 284 173 C284.680625 172.2575 284.680625 172.2575 285.375 171.5 C287 170 287 170 289 170 C289.23332031 169.43796875 289.46664063 168.8759375 289.70703125 168.296875 C291.31937076 165.43265858 293.3193562 163.52747979 295.6875 161.25 C300.93527143 156.10824415 305.82642083 150.81977838 310.3125 145 C310.869375 144.34 311.42625 143.68 312 143 C312.66 143 313.32 143 314 143 C314 142.34 314 141.68 314 141 C314.66 141 315.32 141 316 141 C316 140.34 316 139.68 316 139 C316.66 139 317.32 139 318 139 C318.2475 138.43796875 318.495 137.8759375 318.75 137.296875 C320.21274867 134.60907431 321.96804873 132.53594518 324 130.25 C324.70125 129.45078125 325.4025 128.6515625 326.125 127.828125 C328 126 328 126 330 126 C330.226875 125.46375 330.45375 124.9275 330.6875 124.375 C332.45570089 121.17539839 334.53670203 118.70962777 337 116 C337.66 116 338.32 116 339 116 C339.66 114.68 340.32 113.36 341 112 C341.66 112 342.32 112 343 112 C343 111.34 343 110.68 343 110 C343.66 110 344.32 110 345 110 C345.26804443 109.40977051 345.53608887 108.81954102 345.81225586 108.21142578 C347.00948994 105.98233096 348.26251195 104.44125218 350.00390625 102.6171875 C350.86725586 101.70259766 350.86725586 101.70259766 351.74804688 100.76953125 C352.64620117 99.83173828 352.64620117 99.83173828 353.5625 98.875 C354.75332327 97.62431717 355.94222111 96.37179738 357.12890625 95.1171875 C357.91890015 94.29130127 357.91890015 94.29130127 358.72485352 93.44873047 C360.10237804 92.00795511 360.10237804 92.00795511 361 90 C361.66 90 362.32 90 363 90 C363 89.34 363 88.68 363 88 C363.66 88 364.32 88 365 88 C365.25652344 87.41476563 365.51304687 86.82953125 365.77734375 86.2265625 C367.10562162 83.80765392 368.56524801 82.26801128 370.5625 80.375 C373.14015389 77.95478041 373.14015389 77.95478041 375 75 C375.66 75 376.32 75 377 75 C377.24621094 74.42507812 377.49242187 73.85015625 377.74609375 73.2578125 C379.19793053 70.64360173 380.90287549 68.93663792 383.0625 66.875 C385.91571933 64.22095 385.91571933 64.22095 388 61 C388.66 61 389.32 61 390 61 C390 60.34 390 59.68 390 59 C390.66 59 391.32 59 392 59 C392 58.34 392 57.68 392 57 C392.66 57 393.32 57 394 57 C394.37125 56.13568359 394.37125 56.13568359 394.75 55.25390625 C396.18694245 52.6629194 397.85958333 50.97955193 400 48.9375 C402.37442798 46.66346144 404.16347952 44.75478071 406 42 C406.66 42 407.32 42 408 42 C408.3403125 41.195625 408.3403125 41.195625 408.6875 40.375 C412.08313424 34.230519 417.44278907 29.48320804 422.4296875 24.640625 C427.28113229 19.89767898 431.65883948 15.12786245 435.625 9.6171875 C436.305625 8.81667969 436.305625 8.81667969 437 8 C437.66 8 438.32 8 439 8 C439 7.34 439 6.68 439 6 C439.66 6 440.32 6 441 6 C441 5.34 441 4.68 441 4 C441.66 4 442.32 4 443 4 C443 3.34 443 2.68 443 2 C443.66 2 444.32 2 445 2 C445 1.34 445 0.68 445 0 C460.18 0 475.36 0 491 0 C489.20165737 4.49585657 488.48605863 5.85337921 485.1875 8.9375 C482.65623956 11.3585059 480.29982446 13.75387837 478.125 16.5 C477.42375 17.325 476.7225 18.15 476 19 C475.34 19 474.68 19 474 19 C473.34 20.32 472.68 21.64 472 23 C471.34 23 470.68 23 470 23 C469.773125 23.53625 469.54625 24.0725 469.3125 24.625 C466.43568616 29.83066315 462.16922473 33.83077527 458 38 C456.96993663 39.17950261 455.94948097 40.36744709 454.9375 41.5625 C452.72842769 44.1634129 450.55082312 46.72247935 448 49 C447.34 49 446.68 49 446 49 C445.74605469 49.58265625 445.49210937 50.1653125 445.23046875 50.765625 C443.86679667 53.24188033 442.35774797 54.80520626 440.3125 56.75 C435.67175079 61.27326188 431.4248296 66.06233287 427.30078125 71.05859375 C426.76839844 71.69925781 426.23601562 72.33992188 425.6875 73 C425.21699219 73.5775 424.74648438 74.155 424.26171875 74.75 C423 76 423 76 421 76 C421 76.66 421 77.32 421 78 C420.34 78 419.68 78 419 78 C419 78.66 419 79.32 419 80 C418.34 80 417.68 80 417 80 C416.60494263 80.87833496 416.60494263 80.87833496 416.2019043 81.77441406 C414.94677217 84.09856286 413.59314046 85.70607738 411.76953125 87.609375 C411.13080078 88.28226562 410.49207031 88.95515625 409.83398438 89.6484375 C409.16689453 90.34195313 408.49980469 91.03546875 407.8125 91.75 C403.90634954 95.83882615 400.02779522 99.92860976 396.32421875 104.203125 C393.66651779 107.26903861 390.90875428 110.16779189 388 113 C382.93433317 118.01161246 377.96220497 123.05669255 374 129 C373.34 129 372.68 129 372 129 C372 129.66 372 130.32 372 131 C371.34 131 370.68 131 370 131 C370 131.66 370 132.32 370 133 C369.34 133 368.68 133 368 133 C367.731875 133.58265625 367.46375 134.1653125 367.1875 134.765625 C365.98519009 137.02786601 364.66174087 138.80576318 363 140.75 C362.484375 141.36359375 361.96875 141.9771875 361.4375 142.609375 C360 144 360 144 358 144 C357.75378906 144.57492188 357.50757813 145.14984375 357.25390625 145.7421875 C355.80206947 148.35639827 354.09712451 150.06336208 351.9375 152.125 C349.08428067 154.77905 349.08428067 154.77905 347 158 C346.34 158 345.68 158 345 158 C345 158.66 345 159.32 345 160 C344.34 160 343.68 160 343 160 C343 160.66 343 161.32 343 162 C342.34 162 341.68 162 341 162 C340.73662842 162.58555664 340.47325684 163.17111328 340.2019043 163.77441406 C338.94677217 166.09856286 337.59314046 167.70607738 335.76953125 169.609375 C335.13080078 170.28226563 334.49207031 170.95515625 333.83398438 171.6484375 C333.16689453 172.34195313 332.49980469 173.03546875 331.8125 173.75 C325.9026398 179.93624172 320.21250066 186.26181741 314.63671875 192.75 C313.99347656 193.4925 313.35023438 194.235 312.6875 195 C311.70330078 196.1446875 311.70330078 196.1446875 310.69921875 197.3125 C309 199 309 199 307 199 C307.23311986 205.36518578 310.71749864 209.0257939 314.5625 213.75 C315.7762063 215.26236702 316.98605592 216.77783992 318.19140625 218.296875 C318.99880249 219.29219238 318.99880249 219.29219238 319.82250977 220.30761719 C321 222 321 222 321 224 C321.66 224 322.32 224 323 224 C324.62304263 226.09366465 326.13447001 228.18965544 327.625 230.375 C331.39089632 235.80045554 335.31889764 240.97577884 339.6015625 246.01171875 C341 248 341 248 341 251 C341.66 251 342.32 251 343 251 C344.58318818 253.0307433 346.05027948 255.06405159 347.5 257.1875 C348.40295474 258.48186148 349.30795353 259.77479909 350.21484375 261.06640625 C350.67745605 261.72527832 351.14006836 262.38415039 351.61669922 263.06298828 C353.69453162 265.97254039 355.8687379 268.80235368 358.0625 271.625 C358.46968262 272.1509375 358.87686523 272.676875 359.29638672 273.21875 C360.11507537 274.27612812 360.93408432 275.33325831 361.75341797 276.39013672 C363.88853083 279.14746813 366.01338189 281.91213428 368.125 284.6875 C368.87007813 285.66074219 369.61515625 286.63398438 370.3828125 287.63671875 C372 290 372 290 372 292 C372.66 292 373.32 292 374 292 C375.03640883 293.64427325 376.02759719 295.31708273 377 297 C378.95183673 299.62604631 380.93506238 302.22274665 382.94726562 304.80273438 C386 308.78783097 386 308.78783097 386 311 C386.66 311 387.32 311 388 311 C389.26171875 312.44604492 389.26171875 312.44604492 390.6875 314.48046875 C391.21617676 315.22578857 391.74485352 315.9711084 392.28955078 316.73901367 C392.85399902 317.54701416 393.41844727 318.35501465 394 319.1875 C395.18328934 320.85530762 396.36819689 322.52196827 397.5546875 324.1875 C398.14088867 325.01121094 398.72708984 325.83492188 399.33105469 326.68359375 C401.5319982 329.73838486 403.81390469 332.71503015 406.125 335.6875 C411.11545425 342.11077635 415.94817644 348.64423079 420.71728516 355.23339844 C421.61597451 356.47110611 422.52259484 357.70307588 423.43505859 358.93066406 C427 363.77998682 427 363.77998682 427 366 C427.66 366 428.32 366 429 366 C430.26171875 367.44604492 430.26171875 367.44604492 431.6875 369.48046875 C432.21657959 370.22635254 432.74565918 370.97223633 433.29077148 371.74072266 C433.85481689 372.54815918 434.4188623 373.3555957 435 374.1875 C436.17677514 375.84619569 437.35517457 377.50374014 438.53515625 379.16015625 C439.41324951 380.39403076 439.41324951 380.39403076 440.30908203 381.65283203 C442.62058692 384.86143844 445.01149856 388.00248003 447.4375 391.125 C448.22769531 392.14464844 449.01789063 393.16429687 449.83203125 394.21484375 C451.20439069 395.97789291 452.57678244 397.74091692 453.94921875 399.50390625 C454.50222656 400.22449219 455.05523437 400.94507813 455.625 401.6875 C456.09164063 402.28949219 456.55828125 402.89148438 457.0390625 403.51171875 C458 405 458 405 458 407 C458.66 407 459.32 407 460 407 C461.31765863 408.74251117 462.55070426 410.54900461 463.75 412.375 C468.23394428 419.07480834 473.12586535 425.40916137 478.12597656 431.72998047 C487 442.9858736 487 442.9858736 487 446 C487.66 446 488.32 446 489 446 C493 451.41176471 493 451.41176471 493 454 C493.66 454 494.32 454 495 454 C496.79826445 456.25814848 498.4746801 458.51277739 500.125 460.875 C500.59292969 461.52597656 501.06085938 462.17695313 501.54296875 462.84765625 C505 467.73587828 505 467.73587828 505 470 C505.66 470 506.32 470 507 470 C511 475.41176471 511 475.41176471 511 478 C511.66 478 512.32 478 513 478 C513.66 479.65 514.32 481.3 515 483 C494.91162107 483.21032433 474.82346581 483.36898923 454.73421383 483.46630955 C445.40617486 483.51270022 436.07882032 483.57593534 426.7512207 483.67895508 C418.62038497 483.76871415 410.49004492 483.8267363 402.35872751 483.84679645 C398.05368687 483.85852168 393.75006414 483.88603487 389.44547844 483.95157051 C385.39111841 484.01279479 381.33875591 484.03147949 377.28397751 484.01796913 C375.79841682 484.02043942 374.31278741 484.03826935 372.82762718 484.07284927 C361.66420645 484.31996185 361.66420645 484.31996185 357.52020454 481.03315544 C354.79116924 477.67678483 353 475.39724536 353 471 C352.34 471 351.68 471 351 471 C347 465.58823529 347 465.58823529 347 463 C346.34 463 345.68 463 345 463 C343.37109375 461.015625 343.37109375 461.015625 341.4375 458.25 C339.15621093 455.02270848 336.87369864 451.80708549 334.47265625 448.66796875 C334.06023682 448.12817383 333.64781738 447.58837891 333.22290039 447.03222656 C332.04631847 445.49790172 330.86696528 443.96570321 329.6875 442.43359375 C328 440 328 440 328 438 C327.34 438 326.68 438 326 438 C322 432.58823529 322 432.58823529 322 430 C321.34 430 320.68 430 320 430 C318.6953125 428.375 318.6953125 428.375 317.125 426 C314.01214872 421.42378771 310.77315317 416.97659743 307.4375 412.5625 C302.32291855 405.77980307 297.2687788 398.95498887 292.2434082 392.10595703 C289.33813478 388.15206338 286.4147992 384.21456036 283.4453125 380.30859375 C282.88585937 379.57125 282.32640625 378.83390625 281.75 378.07421875 C280.68902648 376.67914059 279.62409015 375.28706483 278.5546875 373.8984375 C275 369.22070313 275 369.22070313 275 367 C274.34 367 273.68 367 273 367 C271.44921875 365.05859375 271.44921875 365.05859375 269.6875 362.4375 C267.52683363 359.25074312 265.35264568 356.0949683 263.0625 353 C261 350 261 350 261 348 C260.34 348 259.68 348 259 348 C257.40625 346.05078125 257.40625 346.05078125 255.5 343.3125 C252.47941787 339.05103008 249.39335403 334.87619491 246.1875 330.75 C242.36565775 325.80850675 238.59535244 320.83090241 234.875 315.8125 C234.38926514 315.16442383 233.90353027 314.51634766 233.40307617 313.84863281 C230 309.23232887 230 309.23232887 230 307 C229.34 307 228.68 307 228 307 C224 301.58823529 224 301.58823529 224 299 C223.34 299 222.68 299 222 299 C220.375 297.5 220.375 297.5 219 296 C217.3719224 297.6010431 215.74764115 299.20594736 214.125 300.8125 C213.22007812 301.70582031 212.31515625 302.59914063 211.3828125 303.51953125 C208.90168486 305.95638333 208.90168486 305.95638333 207 309 C206.34 309 205.68 309 205 309 C204.6596875 309.804375 204.6596875 309.804375 204.3125 310.625 C201.45163717 315.80179941 197.19941931 319.8982416 193 324 C191.58030635 325.39275449 190.16382884 326.78879233 188.75 328.1875 C187.72132813 329.19876953 187.72132813 329.19876953 186.671875 330.23046875 C184.92550889 331.90798995 184.92550889 331.90798995 184 334 C183.34 334 182.68 334 182 334 C182 334.66 182 335.32 182 336 C181.34 336 180.68 336 180 336 C179.7421875 336.57234375 179.484375 337.1446875 179.21875 337.734375 C177.88634058 340.21128995 176.34943882 342.1341166 174.5 344.25 C173.8915625 344.95640625 173.283125 345.6628125 172.65625 346.390625 C171 348 171 348 169 348 C169 348.66 169 349.32 169 350 C168.34 350 167.68 350 167 350 C167 350.66 167 351.32 167 352 C166.34 352 165.68 352 165 352 C164.740979 352.58120605 164.48195801 353.16241211 164.21508789 353.76123047 C162.90731606 356.17076788 161.45530761 357.84589109 159.55859375 359.8203125 C158.89279297 360.52027344 158.22699219 361.22023438 157.54101562 361.94140625 C156.49977539 363.02228516 156.49977539 363.02228516 155.4375 364.125 C154.05916169 365.56315539 152.68276043 367.00317056 151.30859375 368.4453125 C150.69814209 369.07969238 150.08769043 369.71407227 149.45874023 370.36767578 C147.91483679 371.95154375 147.91483679 371.95154375 147 374 C146.34 374 145.68 374 145 374 C144.74347656 374.58523438 144.48695313 375.17046875 144.22265625 375.7734375 C142.89437838 378.19234608 141.43475199 379.73198872 139.4375 381.625 C136.85984611 384.04521959 136.85984611 384.04521959 135 387 C134.34 387 133.68 387 133 387 C133 387.66 133 388.32 133 389 C132.34 389 131.68 389 131 389 C130.731875 389.639375 130.46375 390.27875 130.1875 390.9375 C129 393 129 393 126 394 C124.89163577 395.88316159 124.89163577 395.88316159 124 398 C123.34 398.99 122.68 399.98 122 401 C121.34 401 120.68 401 120 401 C119.74347656 401.58523438 119.48695312 402.17046875 119.22265625 402.7734375 C117.89437838 405.19234608 116.43475199 406.73198872 114.4375 408.625 C111.85984611 411.04521959 111.85984611 411.04521959 110 414 C109.34 414 108.68 414 108 414 C108 414.66 108 415.32 108 416 C107.34 416 106.68 416 106 416 C106 416.66 106 417.32 106 418 C105.34 418 104.68 418 104 418 C103.60603027 418.87724731 103.60603027 418.87724731 103.20410156 419.7722168 C101.94021216 422.11061721 100.57021174 423.72935248 98.734375 425.64453125 C98.09113281 426.32193359 97.44789062 426.99933594 96.78515625 427.69726562 C96.11355469 428.39529297 95.44195312 429.09332031 94.75 429.8125 C93.43080999 431.19259564 92.11308582 432.57409403 90.796875 433.95703125 C90.15814453 434.62686035 89.51941406 435.29668945 88.86132812 435.98681641 C87.05120126 437.94462151 85.34154641 439.95893601 83.640625 442.01171875 C82.76921875 442.99785156 81.8978125 443.98398437 81 445 C80.34 445 79.68 445 79 445 C78.62875 445.8353125 78.62875 445.8353125 78.25 446.6875 C75.64416823 451.50828878 71.88992148 455.19848583 68 459 C66.58033185 460.39278049 65.16384234 461.78880597 63.75 463.1875 C63.06421875 463.86167969 62.3784375 464.53585937 61.671875 465.23046875 C59.92550889 466.90798995 59.92550889 466.90798995 59 469 C58.34 469 57.68 469 57 469 C57 469.66 57 470.32 57 471 C56.34 471 55.68 471 55 471 C55 471.66 55 472.32 55 473 C54.34 473 53.68 473 53 473 C52.79375 473.53625 52.5875 474.0725 52.375 474.625 C50.3933122 478.04791529 48.29472679 480.81113186 45 483 C41.43595961 483.81084149 37.99107334 483.70150795 34.3515625 483.5859375 C33.33903412 483.57744781 32.32650574 483.56895813 31.28329468 483.56021118 C28.06276136 483.52673745 24.844771 483.45146656 21.625 483.375 C19.43623418 483.34489273 17.24742896 483.31751827 15.05859375 483.29296875 C9.70486776 483.22696667 4.35261557 483.12667949 -1 483 C0.41168758 480.08422898 1.89042582 477.71820179 4 475.25 C4.515625 474.63640625 5.03125 474.0228125 5.5625 473.390625 C7 472 7 472 9 472 C9 471.34 9 470.68 9 470 C9.66 470 10.32 470 11 470 C11 469.34 11 468.68 11 468 C11.66 468 12.32 468 13 468 C13.24621094 467.42507813 13.49242187 466.85015625 13.74609375 466.2578125 C15.19793053 463.64360173 16.90287549 461.93663792 19.0625 459.875 C21.91571933 457.22095 21.91571933 457.22095 24 454 C24.66 454 25.32 454 26 454 C26.25007813 453.42121094 26.50015625 452.84242188 26.7578125 452.24609375 C28.16519751 449.70129381 29.77282931 448.06551169 31.875 446.0625 C34.24022757 443.77011459 36.32378431 441.59100929 38.375 439 C38.91125 438.34 39.4475 437.68 40 437 C40.66 437 41.32 437 42 437 C42.3403125 436.195625 42.3403125 436.195625 42.6875 435.375 C44.45570089 432.17539839 46.53670203 429.70962777 49 427 C49.66 427 50.32 427 51 427 C51.24621094 426.42507813 51.49242187 425.85015625 51.74609375 425.2578125 C53.19793053 422.64360173 54.90287549 420.93663792 57.0625 418.875 C59.91571933 416.22095 59.91571933 416.22095 62 413 C62.66 413 63.32 413 64 413 C64.24621094 412.42507813 64.49242188 411.85015625 64.74609375 411.2578125 C66.19793053 408.64360173 67.90287549 406.93663792 70.0625 404.875 C72.91571933 402.22095 72.91571933 402.22095 75 399 C75.66 399 76.32 399 77 399 C77.25652344 398.41476562 77.51304688 397.82953125 77.77734375 397.2265625 C79.10562162 394.80765392 80.56524801 393.26801128 82.5625 391.375 C85.14015389 388.95478041 85.14015389 388.95478041 87 386 C87.66 386 88.32 386 89 386 C89 385.34 89 384.68 89 384 C89.66 384 90.32 384 91 384 C91.268125 383.41734375 91.53625 382.8346875 91.8125 382.234375 C93.01480991 379.97213399 94.33825913 378.19423682 96 376.25 C96.515625 375.63640625 97.03125 375.0228125 97.5625 374.390625 C99 373 99 373 101 373 C101.25652344 372.41476562 101.51304688 371.82953125 101.77734375 371.2265625 C103.10562162 368.80765392 104.56524801 367.26801128 106.5625 365.375 C109.14015389 362.95478041 109.14015389 362.95478041 111 360 C111.66 360 112.32 360 113 360 C113 359.34 113 358.68 113 358 C113.66 358 114.32 358 115 358 C115.226875 357.46375 115.45375 356.9275 115.6875 356.375 C117.45570089 353.17539839 119.53670203 350.70962777 122 348 C122.66 348 123.32 348 124 348 C124.25652344 347.41476562 124.51304688 346.82953125 124.77734375 346.2265625 C126.10562162 343.80765392 127.56524801 342.26801128 129.5625 340.375 C132.14015389 337.95478041 132.14015389 337.95478041 134 335 C134.66 335 135.32 335 136 335 C136 334.34 136 333.68 136 333 C136.66 333 137.32 333 138 333 C138 332.34 138 331.68 138 331 C138.66 331 139.32 331 140 331 C140 330.34 140 329.68 140 329 C140.66 329 141.32 329 142 329 C142.259021 328.41879395 142.51804199 327.83758789 142.78491211 327.23876953 C144.09268394 324.82923212 145.54469239 323.15410891 147.44140625 321.1796875 C148.10720703 320.47972656 148.77300781 319.77976562 149.45898438 319.05859375 C150.50022461 317.97771484 150.50022461 317.97771484 151.5625 316.875 C152.94083831 315.43684461 154.31723957 313.99682944 155.69140625 312.5546875 C156.30185791 311.92030762 156.91230957 311.28592773 157.54125977 310.63232422 C159.08516321 309.04845625 159.08516321 309.04845625 160 307 C160.66 307 161.32 307 162 307 C162 306.34 162 305.68 162 305 C162.66 305 163.32 305 164 305 C164.39638672 304.11054687 164.39638672 304.11054687 164.80078125 303.203125 C166.04370425 300.91970946 167.30401646 299.52573277 169.1875 297.75 C173.65844426 293.40973052 177.98134867 288.86308716 181.578125 283.76171875 C182.04734375 283.18035156 182.5165625 282.59898437 183 282 C183.66 282 184.32 282 185 282 C185 281.34 185 280.68 185 280 C185.66 280 186.32 280 187 280 C187 279.34 187 278.68 187 278 C187.66 278 188.32 278 189 278 C189.66 276.68 190.32 275.36 191 274 C191.66 274 192.32 274 193 274 C193.28875 273.38125 193.5775 272.7625 193.875 272.125 C195 270 195 270 197 268 C196.75423519 263.58368089 194.91540384 261.3165151 192.0625 258.0625 C188.32027237 253.64643073 184.81027822 249.14213372 181.4375 244.4375 C180.99607666 243.8297876 180.55465332 243.2220752 180.09985352 242.59594727 C177 238.24457332 177 238.24457332 177 236 C176.34 236 175.68 236 175 236 C173.41683719 233.96928925 171.94959865 231.93598862 170.5 229.8125 C166.2056367 223.65236448 161.73512686 217.67186475 157.12890625 211.7421875 C156.42636719 210.83726562 155.72382813 209.93234375 155 209 C154.41089844 208.26007813 153.82179687 207.52015625 153.21484375 206.7578125 C152 205 152 205 152 203 C151.34 203 150.68 203 150 203 C148.57657121 201.13419482 147.23767163 199.20369706 145.9375 197.25 C142.04169868 191.45251394 137.92996773 185.88397545 133.65234375 180.36328125 C132 178 132 178 132 176 C131.34 176 130.68 176 130 176 C128.6171875 174.33203125 128.6171875 174.33203125 126.875 171.8125 C122.74262456 165.97278115 118.42178164 160.2970084 114.0625 154.625 C108.68745892 147.61944703 103.48649885 140.55882066 98.6015625 133.203125 C97.18689617 130.90157127 97.18689617 130.90157127 95 130 C93.9296875 128.44140625 93.9296875 128.44140625 92.875 126.5625 C92.52179688 125.94503906 92.16859375 125.32757813 91.8046875 124.69140625 C91 123 91 123 91 121 C90.34 121 89.68 121 89 121 C85 115.58823529 85 115.58823529 85 113 C84.34 113 83.68 113 83 113 C81.10336703 110.68324608 79.32167508 108.35595058 77.5625 105.9375 C77.03624023 105.22319824 76.50998047 104.50889648 75.96777344 103.77294922 C74.8647742 102.27451653 73.76440565 100.77414429 72.66650391 99.27197266 C71.04450806 97.06067858 69.40609856 94.86265093 67.76171875 92.66796875 C66.75755 91.32050809 65.75363335 89.9728595 64.75 88.625 C64.27248291 87.98941162 63.79496582 87.35382324 63.30297852 86.69897461 C60 82.22793667 60 82.22793667 60 80 C59.34 80 58.68 80 58 80 C54 74.58823529 54 74.58823529 54 72 C53.34 72 52.68 72 52 72 C50.6953125 70.375 50.6953125 70.375 49.125 68 C45.81383382 63.12735756 42.35322574 58.39408761 38.8125 53.6875 C38.30154785 53.00623047 37.7905957 52.32496094 37.26416016 51.62304688 C35.10182256 48.74934895 32.9304747 45.91599506 30.63671875 43.14453125 C29 41 29 41 29 39 C28.34 39 27.68 39 27 39 C25.37890625 36.953125 25.37890625 36.953125 23.5625 34.25 C21.00482951 30.46187759 21.00482951 30.46187759 18.27734375 26.796875 C17 25 17 25 17 23 C16.34 23 15.68 23 15 23 C13.80859375 21.453125 13.80859375 21.453125 12.4375 19.25 C9.14854051 14.11661161 5.48561568 9.32052323 1.7578125 4.50390625 C0 2 0 2 0 0 Z M68 34 C70.52945594 38.23707394 73.2137398 42.28608639 76.0625 46.3125 C76.50916016 46.95767578 76.95582031 47.60285156 77.41601562 48.26757812 C78.55936817 49.88262768 79.77439471 51.44644544 81 53 C81.66 53 82.32 53 83 53 C83.20753906 53.66257812 83.41507813 54.32515625 83.62890625 55.0078125 C85.50480477 59.10165372 88.15871999 62.35193248 90.9375 65.875 C92.10929399 67.38316664 93.27984231 68.89230186 94.44921875 70.40234375 C95.33552979 71.54485596 95.33552979 71.54485596 96.23974609 72.71044922 C98.96040269 76.24918952 101.61212555 79.83681687 104.25 83.4375 C104.715271 84.06962402 105.18054199 84.70174805 105.65991211 85.35302734 C108.87288256 89.74576512 108.87288256 89.74576512 110 92 C110.66 92 111.32 92 112 92 C112.28875 92.763125 112.5775 93.52625 112.875 94.3125 C113.96269013 97.15029308 113.96269013 97.15029308 116 100 C116.66 100 117.32 100 118 100 C118.2475 100.70511719 118.495 101.41023438 118.75 102.13671875 C120.16103659 105.36887443 121.9250726 107.96328902 124 110.8125 C124.70125 111.78832031 125.4025 112.76414062 126.125 113.76953125 C127.053125 114.87361328 127.053125 114.87361328 128 116 C128.66 116 129.32 116 130 116 C130.2371875 116.52722656 130.474375 117.05445312 130.71875 117.59765625 C132.3902209 120.73166419 134.42543269 123.56349626 136.5 126.4375 C136.93997314 127.05077148 137.37994629 127.66404297 137.83325195 128.29589844 C141.27165284 133.05967546 144.82605991 137.72555434 148.44140625 142.35595703 C151.69337887 146.53872913 154.70305237 150.85149025 157.625 155.26953125 C158.07875 155.84058594 158.5325 156.41164063 159 157 C159.66 157 160.32 157 161 157 C161.10779785 157.58160889 161.2155957 158.16321777 161.32666016 158.76245117 C162.08959217 161.29772018 163.12141783 162.74031234 164.7734375 164.80078125 C165.34545898 165.52305908 165.91748047 166.24533691 166.50683594 166.98950195 C167.12333008 167.75609131 167.73982422 168.52268066 168.375 169.3125 C169.66055219 170.93615701 170.94438449 172.56117713 172.2265625 174.1875 C172.86625977 174.99832031 173.50595703 175.80914062 174.16503906 176.64453125 C176.76535781 179.98246037 179.26734598 183.38659112 181.75 186.8125 C185.11787109 191.45319493 188.54268219 196.0359386 192.0625 200.5625 C195.6577272 205.20633514 199.14744681 209.9096235 202.5625 214.6875 C202.99248291 215.28828369 203.42246582 215.88906738 203.86547852 216.50805664 C206.86841667 220.73683335 206.86841667 220.73683335 208 223 C208.66 223 209.32 223 210 223 C210.40726318 223.8667334 210.40726318 223.8667334 210.82275391 224.75097656 C212.00303139 227.0057912 213.32011976 228.94210267 214.8359375 230.984375 C215.39966064 231.7467749 215.96338379 232.5091748 216.54418945 233.29467773 C217.14835693 234.10493408 217.75252441 234.91519043 218.375 235.75 C218.99914795 236.59183838 219.6232959 237.43367676 220.26635742 238.30102539 C226.93583892 247.2864283 233.64703092 256.2410148 240.39453125 265.16796875 C243.55526255 269.35829028 246.69892074 273.55001752 249.70703125 277.8515625 C250.16190918 278.4997998 250.61678711 279.14803711 251.08544922 279.81591797 C251.97203884 281.08416698 252.85279888 282.35651563 253.72705078 283.63330078 C254.76921254 285.12421208 255.87896588 286.56744978 257 288 C257.66 288 258.32 288 259 288 C259.26643311 288.73951904 259.53286621 289.47903809 259.80737305 290.2409668 C260.97792338 292.94892777 262.2417884 294.85532908 264.08203125 297.14453125 C264.98598633 298.28438477 264.98598633 298.28438477 265.90820312 299.44726562 C266.85083008 300.61805664 266.85083008 300.61805664 267.8125 301.8125 C271.89314448 306.89944761 275.72867749 311.89815354 278.96362305 317.57299805 C279.30562744 318.04390869 279.64763184 318.51481934 280 319 C280.66 319 281.32 319 282 319 C282.21785156 319.680625 282.43570313 320.36125 282.66015625 321.0625 C284.39461198 324.86515513 286.80062465 327.78211821 289.4375 331 C294.66682237 337.43186036 294.66682237 337.43186036 296.72265625 340.9375 C297.35494141 341.9584375 297.35494141 341.9584375 298 343 C298.66 343 299.32 343 300 343 C300.24363281 343.71027344 300.48726562 344.42054688 300.73828125 345.15234375 C302.17936332 348.40481689 303.97280708 350.77651276 306.1875 353.5625 C307.08730471 354.70726 307.98564356 355.85317314 308.8828125 357 C309.3768457 357.63035156 309.87087891 358.26070313 310.37988281 358.91015625 C313.49081108 362.92304744 316.52196997 366.99617576 319.5625 371.0625 C320.85546237 372.79036936 322.14843098 374.51823404 323.44140625 376.24609375 C324.05258301 377.06319824 324.66375977 377.88030273 325.29345703 378.72216797 C326.76312781 380.68383154 328.23703822 382.64211917 329.71484375 384.59765625 C333.8295047 390.04870281 337.80691236 395.54656326 341.58984375 401.234375 C342.05519531 401.81703125 342.52054687 402.3996875 343 403 C343.66 403 344.32 403 345 403 C345.2578125 403.73347656 345.515625 404.46695312 345.78125 405.22265625 C347.0483863 408.11026493 348.46954089 410.03673175 350.5 412.4375 C353.85380291 416.5217137 357.00528444 420.69321749 360.0625 425 C360.48402344 425.59240479 360.90554688 426.18480957 361.33984375 426.79516602 C363.29345115 429.55228546 365.22002537 432.3233522 367.12109375 435.1171875 C367.74113281 436.02726562 368.36117188 436.93734375 369 437.875 C369.53625 438.67679687 370.0725 439.47859375 370.625 440.3046875 C371.07875 440.86414063 371.5325 441.42359375 372 442 C372.66 442 373.32 442 374 442 C374.4021875 443.1446875 374.4021875 443.1446875 374.8125 444.3125 C376.02167635 447.04905701 376.61803887 448.25086717 379 450 C382.09120216 450.43749124 382.09120216 450.43749124 385.67456055 450.34057617 C386.347995 450.34101425 387.02142944 450.34145233 387.715271 450.34190369 C389.93938269 450.33981501 392.16273888 450.3164815 394.38671875 450.29296875 C395.92942391 450.28737305 397.4721344 450.28310283 399.0148468 450.28010559 C403.07397191 450.26865471 407.13277466 450.23918569 411.19177246 450.20599365 C415.33418415 450.17529787 419.47664797 450.16160132 423.61914062 450.14648438 C431.74624164 450.114316 439.87308071 450.06311698 448 450 C447.58554626 449.45186646 447.17109253 448.90373291 446.74407959 448.33898926 C446.20172668 447.61932983 445.65937378 446.89967041 445.10058594 446.15820312 C444.5623822 445.44506958 444.02417847 444.73193604 443.46966553 443.99719238 C441.46037888 441.26668541 439.76982604 438.4010318 438.078125 435.46875 C437.72234375 434.9840625 437.3665625 434.499375 437 434 C436.34 434 435.68 434 435 434 C434.88172852 433.40268066 434.76345703 432.80536133 434.64160156 432.18994141 C433.60644653 428.65670675 431.0786364 426.15070532 428.75 423.375 C423.89397703 417.45604838 419.28297227 411.4028824 414.8125 405.1875 C413.96606934 404.01356689 413.96606934 404.01356689 413.10253906 402.81591797 C409.14461508 397.28923017 409.14461508 397.28923017 408 395 C407.34 395 406.68 395 406 395 C405.566875 393.8553125 405.566875 393.8553125 405.125 392.6875 C404.03730987 389.84970692 404.03730987 389.84970692 402 387 C401.34 387 400.68 387 400 387 C399.5978125 385.88625 399.5978125 385.88625 399.1875 384.75 C398.03420166 382.07920384 396.82486525 380.245988 395 378 C394.37480469 377.21753906 393.74960937 376.43507813 393.10546875 375.62890625 C392.41066406 374.76136719 391.71585937 373.89382813 391 373 C380.59684493 359.61424779 370.42185427 346.06550563 360.53979492 332.2902832 C357.59876288 328.19346072 354.61169568 324.13818506 351.57568359 320.11132812 C349.83440598 317.77811326 348.12640289 315.42268564 346.421875 313.0625 C345.81859375 312.23105469 345.2153125 311.39960938 344.59375 310.54296875 C343.34434448 308.81974207 342.09969145 307.09306143 340.859375 305.36328125 C340.26125 304.54214844 339.663125 303.72101563 339.046875 302.875 C338.50901367 302.12992187 337.97115234 301.38484375 337.41699219 300.6171875 C336.94938477 300.08351563 336.48177734 299.54984375 336 299 C335.34 299 334.68 299 334 299 C333.5970874 297.8874585 333.5970874 297.8874585 333.18603516 296.75244141 C332.03984715 294.09247361 330.82133978 292.21341832 329.0234375 289.9609375 C328.43933105 289.22149902 327.85522461 288.48206055 327.25341797 287.72021484 C326.63354004 286.94629395 326.01366211 286.17237305 325.375 285.375 C324.09248395 283.75099903 322.811226 282.12600369 321.53125 280.5 C320.91636719 279.72011719 320.30148437 278.94023437 319.66796875 278.13671875 C317.03644865 274.76566139 314.54057169 271.30423499 312.05078125 267.828125 C308.93460371 263.53076778 305.7161294 259.31089787 302.51367188 255.07763672 C298.39602355 249.60273807 294.52569199 243.99115421 290.7421875 238.28125 C289.87980469 237.15203125 289.87980469 237.15203125 289 236 C288.34 236 287.68 236 287 236 C286.01 233.525 286.01 233.525 285 231 C284.34 231 283.68 231 283 231 C282.77054688 230.30777344 282.54109375 229.61554688 282.3046875 228.90234375 C280.7201718 225.37750793 278.5254325 222.55429269 276.125 219.5625 C275.25067615 218.46116328 274.3782631 217.35830678 273.5078125 216.25390625 C273.08532227 215.71910645 272.66283203 215.18430664 272.22753906 214.63330078 C270.99833196 212.9977806 269.89910731 211.31768818 268.8046875 209.58984375 C267.91136719 208.30787109 267.91136719 208.30787109 267 207 C266.34 207 265.68 207 265 207 C264.76023437 206.29488281 264.52046875 205.58976563 264.2734375 204.86328125 C262.78770298 201.52265732 260.89784894 199.05246655 258.625 196.1875 C257.72952326 195.0463142 256.83503863 193.90434939 255.94140625 192.76171875 C255.46719238 192.15763184 254.99297852 191.55354492 254.50439453 190.93115234 C251.81845235 187.48327785 249.18949908 183.99287022 246.5625 180.5 C246.05477051 179.8299292 245.54704102 179.1598584 245.02392578 178.46948242 C242.94642273 175.70678615 241.0152256 173.02623913 239.27734375 170.03125 C238.85582031 169.3609375 238.43429688 168.690625 238 168 C237.34 168 236.68 168 236 168 C235.63841797 166.92685547 235.63841797 166.92685547 235.26953125 165.83203125 C233.81823068 162.5945146 232.00005877 160.37317749 229.6875 157.6875 C226.8669695 154.34095417 224.29889286 151.07553229 222.0625 147.3125 C221.381875 146.219375 220.70125 145.12625 220 144 C219.34 144 218.68 144 218 144 C217.77054688 143.30519531 217.54109375 142.61039062 217.3046875 141.89453125 C215.72553283 138.39107733 213.53846189 135.63733357 211.125 132.6875 C210.12607206 131.44133075 209.12873425 130.19388556 208.1328125 128.9453125 C207.6162207 128.29852539 207.09962891 127.65173828 206.56738281 126.98535156 C199.89484312 118.53346795 193.56638827 109.79931737 187.1875 101.125 C186.73383057 100.50818359 186.28016113 99.89136719 185.81274414 99.25585938 C182.54735983 94.79558807 179.401253 90.26349779 176.33984375 85.66015625 C175.89769531 85.11230469 175.45554687 84.56445312 175 84 C174.34 84 173.68 84 173 84 C172.71125 83.236875 172.4225 82.47375 172.125 81.6875 C171.03730987 78.84970692 171.03730987 78.84970692 169 76 C168.34 76 167.68 76 167 76 C166.73058594 75.42894531 166.46117187 74.85789063 166.18359375 74.26953125 C162.03747192 66.31937686 155.9763821 59.19679317 150.64477539 52.00268555 C147.10577201 47.21154403 147.10577201 47.21154403 146 45 C145.34 45 144.68 45 144 45 C143.71125 44.236875 143.4225 43.47375 143.125 42.6875 C142.03730987 39.84970692 142.03730987 39.84970692 140 37 C139.34 37 138.68 37 138 37 C138 36.34 138 35.68 138 35 C135.14429301 33.5721465 132.72285644 33.88058514 129.53076172 33.88647461 C128.86722687 33.88632858 128.20369202 33.88618256 127.52005005 33.8860321 C125.32322947 33.88672969 123.1264933 33.89451486 120.9296875 33.90234375 C119.40796963 33.90420848 117.88625116 33.90563212 116.36453247 33.90663147 C112.35648953 33.91045233 108.34848274 33.92027896 104.3404541 33.93133545 C100.25171396 33.94155882 96.16296799 33.94613108 92.07421875 33.95117188 C84.04946256 33.9619016 76.02473578 33.97897287 68 34 Z " fill="#080808" transform="translate(1,0)"/>
<path d="M0 0 C0.66 0 1.32 0 2 0 C0.61811547 3.21043882 -0.92421903 5.04936365 -3.625 7.25 C-4.57246094 8.03117187 -4.57246094 8.03117187 -5.5390625 8.828125 C-6.02117188 9.21484375 -6.50328125 9.6015625 -7 10 C-5.15014033 6.06048404 -2.92434659 3.21678125 0 0 Z " fill="#696969" transform="translate(50,427)"/>
<path d="" fill="#FFFFFF" transform="translate(0,0)"/>
<path d="" fill="#FFFFFF" transform="translate(0,0)"/>
<path d="" fill="#FFFFFF" transform="translate(0,0)"/>
<path d="" fill="#FFFFFF" transform="translate(0,0)"/>
<path d="" fill="#FFFFFF" transform="translate(0,0)"/>
<path d="" fill="#FFFFFF" transform="translate(0,0)"/>
<path d="" fill="#FFFFFF" transform="translate(0,0)"/>
<path d="" fill="#FFFFFF" transform="translate(0,0)"/>
<path d="" fill="#FFFFFF" transform="translate(0,0)"/>
<path d="" fill="#FFFFFF" transform="translate(0,0)"/>
<path d="" fill="#FFFFFF" transform="translate(0,0)"/>
<path d="" fill="#FFFFFF" transform="translate(0,0)"/>
<path d="" fill="#FFFFFF" transform="translate(0,0)"/>
<path d="" fill="#FFFFFF" transform="translate(0,0)"/>
<path d="" fill="#FFFFFF" transform="translate(0,0)"/>
<path d="" fill="#FFFFFF" transform="translate(0,0)"/>
<path d="" fill="#FFFFFF" transform="translate(0,0)"/>
<path d="" fill="#FFFFFF" transform="translate(0,0)"/>
<path d="" fill="#FFFFFF" transform="translate(0,0)"/>
<path d="" fill="#FFFFFF" transform="translate(0,0)"/>
<path d="" fill="#FFFFFF" transform="translate(0,0)"/>
<path d="" fill="#FFFFFF" transform="translate(0,0)"/>
<path d="" fill="#FFFFFF" transform="translate(0,0)"/>
<path d="" fill="#FFFFFF" transform="translate(0,0)"/>
<path d="" fill="#FFFFFF" transform="translate(0,0)"/>
<path d="" fill="#FFFFFF" transform="translate(0,0)"/>
<path d="" fill="#FFFFFF" transform="translate(0,0)"/>
<path d="" fill="#FFFFFF" transform="translate(0,0)"/>
<path d="" fill="#FFFFFF" transform="translate(0,0)"/>
<path d="" fill="#FFFFFF" transform="translate(0,0)"/>
<path d="" fill="#FFFFFF" transform="translate(0,0)"/>
<path d="" fill="#FFFFFF" transform="translate(0,0)"/>
<path d="" fill="#FFFFFF" transform="translate(0,0)"/>
<path d="" fill="#FFFFFF" transform="translate(0,0)"/>
<path d="" fill="#FFFFFF" transform="translate(0,0)"/>
<path d="" fill="#FFFFFF" transform="translate(0,0)"/>
<path d="" fill="#FFFFFF" transform="translate(0,0)"/>
<path d="" fill="#FFFFFF" transform="translate(0,0)"/>
<path d="" fill="#FFFFFF" transform="translate(0,0)"/>
<path d="" fill="#FFFFFF" transform="translate(0,0)"/>
<path d="" fill="#FFFFFF" transform="translate(0,0)"/>
<path d="" fill="#FFFFFF" transform="translate(0,0)"/>
<path d="" fill="#FFFFFF" transform="translate(0,0)"/>
<path d="" fill="#FFFFFF" transform="translate(0,0)"/>
<path d="" fill="#FFFFFF" transform="translate(0,0)"/>
<path d="" fill="#FFFFFF" transform="translate(0,0)"/>
<path d="" fill="#FFFFFF" transform="translate(0,0)"/>
<path d="" fill="#FFFFFF" transform="translate(0,0)"/>
<path d="" fill="#FFFFFF" transform="translate(0,0)"/>
<path d="" fill="#FFFFFF" transform="translate(0,0)"/>
<path d="" fill="#FFFFFF" transform="translate(0,0)"/>
<path d="" fill="#FFFFFF" transform="translate(0,0)"/>
<path d="" fill="#FFFFFF" transform="translate(0,0)"/>
<path d="" fill="#FFFFFF" transform="translate(0,0)"/>
<path d="" fill="#FFFFFF" transform="translate(0,0)"/>
<path d="" fill="#FFFFFF" transform="translate(0,0)"/>
<path d="" fill="#FFFFFF" transform="translate(0,0)"/>
<path d="" fill="#FFFFFF" transform="translate(0,0)"/>
<path d="" fill="#FFFFFF" transform="translate(0,0)"/>
<path d="" fill="#FFFFFF" transform="translate(0,0)"/>
<path d="" fill="#FFFFFF" transform="translate(0,0)"/>
<path d="" fill="#FFFFFF" transform="translate(0,0)"/>
<path d="" fill="#FFFFFF" transform="translate(0,0)"/>
<path d="" fill="#FFFFFF" transform="translate(0,0)"/>
<path d="" fill="#FFFFFF" transform="translate(0,0)"/>
<path d="" fill="#FFFFFF" transform="translate(0,0)"/>
</svg>
